<?xml version="1.0" encoding="utf-8"?>
<?xml-stylesheet type="text/xsl" href="rss1.xsl"?>
<rss version="2.0" xmlns:atom="http://www.w3.org/2005/Atom" xmlns:content="http://purl.org/rss/1.0/modules/content/" xmlns:dc="http://purl.org/dc/elements/1.1/" xmlns:media="http://search.yahoo.com/mrss/">
<channel>
 <title>Getty</title>
 <link>http://www.gettyimg.com/</link>
 <atom:link href="http://www.gettyimg.com/" rel="self" type="application/rss+xml" />

 
                <item>
                <title><![CDATA[【Cinema Center】MOVIE - Miraculous World: Paris, As Aventuras de Shadybug e Claw Noir (2023) 1080p DIRECTVGO (BR) WEB-DL DDP5.1 DUAL H.264-DASH]]></title>
                <link><![CDATA[https://sharemania.us/threads/miraculous-world-paris-as-aventuras-de-shadybug-e-claw-noir-2023-1080p-directvgo-br-web-dl-ddp5-1-dual-h-264-dash.236754/]]></link>
                <description><![CDATA[<article>
<blockquote class="messageText SelectQuoteContainer ugc baseHtml">
<span style="font-size: 22px"><b>Miraculous.World.-.Paris.as.Aventuras.de.Shadybug.e.Claw.Noir.2023.1080p.DGO.WEB-DL.DDP5.1.H.264-DASH.mkv (Brazilian Portuguese + English)</b></span><br>
<br>
<span style="font-size: 18px">Original English Title: <b>Miraculous World: Paris, Tales of Shadybug and Claw Noir</b><br>
<br>
</span>
<div class="ToggleTriggerAnchor bbCodeSpoilerContainer">
<button type="button" class="button bbCodeSpoilerButton ToggleTrigger Tooltip JsOnly" data-target="> .SpoilerTarget"><span>Spoiler: <span class="SpoilerTitle">MediaInfo</span></span></button>
<div class="SpoilerTarget bbCodeSpoilerText"><span style="font-size: 18px">General<br>
Unique ID : 171139120109853474521426120543020551410 (0x80C03213565EC6222AD018026A008CF2)<br>
Complete name : Miraculous.World.-.Paris.as.Aventuras.de.Shadybug.e.Claw.Noir.2023.1080p.DGO.WEB-DL.DDP5.1.H.264-DASH.mkv<br>
Format : Matroska<br>
Format version : Version 4<br>
File size : 2.13 GiB<br>
Duration : 47 min 42 s<br>
Overall bit rate : 6 386 kb/s<br>
Frame rate : 29.970 FPS<br>
Encoded date : 2024-01-30 20:59:05 UTC<br>
Writing application : mkvmerge v77.0 ('Elemental') 64-bit<br>
Writing library : libebml v1.4.4 + libmatroska v1.7.1<br>
<br>
Video<br>
ID : 1<br>
Format : AVC<br>
Format/Info : Advanced Video Codec<br>
Format profile : High@L4<br>
Format settings : 1 Ref Frames<br>
Format settings, CABAC : No<br>
Format settings, Reference frames : 1 frame<br>
Codec ID : V_MPEG4/ISO/AVC<br>
Duration : 47 min 42 s<br>
Bit rate mode : Constant<br>
Bit rate : 6 000 kb/s<br>
Width : 1 920 pixels<br>
Height : 1 080 pixels<br>
Display aspect ratio : 16:9<br>
Frame rate mode : Constant<br>
Frame rate : 29.970 (30000/1001) FPS<br>
Color space : YUV<br>
Chroma subsampling : 4:2:0<br>
Bit depth : 8 bits<br>
Scan type : Progressive<br>
Bits/(Pixel*Frame) : 0.097<br>
Stream size : 2.00 GiB (94%)<br>
Default : Yes<br>
Forced : No<br>
Color range : Limited<br>
Color primaries : BT.601 NTSC<br>
Transfer characteristics : BT.601<br>
Matrix coefficients : BT.601<br>
<br>
Audio #1<br>
ID : 2<br>
Format : E-AC-3<br>
Format/Info : Enhanced AC-3<br>
Commercial name : Dolby Digital Plus<br>
Codec ID : A_EAC3<br>
Duration : 47 min 42 s<br>
Bit rate mode : Constant<br>
Bit rate : 192 kb/s<br>
Channel(s) : 6 channels<br>
Channel layout : L R C LFE Ls Rs<br>
Sampling rate : 48.0 kHz<br>
Frame rate : 31.250 FPS (1536 SPF)<br>
Compression mode : Lossy<br>
Stream size : 65.5 MiB (3%)<br>
Title : English<br>
Language : English<br>
Service kind : Complete Main<br>
Default : Yes<br>
Forced : No<br>
<br>
Audio #2<br>
ID : 3<br>
Format : E-AC-3<br>
Format/Info : Enhanced AC-3<br>
Commercial name : Dolby Digital Plus<br>
Codec ID : A_EAC3<br>
Duration : 47 min 42 s<br>
Bit rate mode : Constant<br>
Bit rate : 192 kb/s<br>
Channel(s) : 6 channels<br>
Channel layout : L R C LFE Ls Rs<br>
Sampling rate : 48.0 kHz<br>
Frame rate : 31.250 FPS (1536 SPF)<br>
Compression mode : Lossy<br>
Stream size : 65.5 MiB (3%)<br>
Title : Portuguese<br>
Language : Portuguese<br>
Service kind : Complete Main<br>
Default : No<br>
Forced : No<br>
<br>
Text<br>
ID : 4<br>
Format : UTF-8<br>
Codec ID : S_TEXT/UTF8<br>
Codec ID/Info : UTF-8 Plain Text<br>
Duration : 47 min 23 s<br>
Bit rate : 74 b/s<br>
Frame rate : 0.268 FPS<br>
Count of elements : 763<br>
Stream size : 25.8 KiB (0%)<br>
Title : Portuguese<br>
Language : Portuguese<br>
Default : No<br>
Forced : No</span></div>
</div><img src="https://i.imgur.com/zeumtwQ.jpeg" class="bbCodeImage LbImage" alt="[​IMG]" data-url="https://i.imgur.com/zeumtwQ.jpeg" style=""> <br>
<br>
<b><span style="font-size: 22px">Enquanto Marinette e Adrien lidam com seus novos poderes, Shadybug e Claw Noir, suas versões malignas, aparecem em Paris em busca do Miraculous da Borboleta.<br>
<br>
</span><br>
<span style="font-size: 26px">Download on MEGA:</span><br>
<span style="font-size: 18px"><br>
<div class="bbCodeBlock bbCodeVfcHH HiddenContent">
<div class="attribution type">Hidden Content:</div>
<blockquote>You must reply before you can see the hidden data contained here.</blockquote>
</div></span></b>
<div class="messageTextEndMarker">&nbsp;</div>
</blockquote>
</article>]]></description>
                <author><![CDATA[dash]]></author>
                </item>

                
                <item>
                <title><![CDATA[【Cinema Center】MOVIE - Miraculous World: Xangai, A Lenda de LadyDragon (2021) 1080p DIRECTVGO (BR) WEB-DL DUAL DDP5.1 (ENG + BR-PT) H.264-DASH]]></title>
                <link><![CDATA[https://sharemania.us/threads/miraculous-world-xangai-a-lenda-de-ladydragon-2021-1080p-directvgo-br-web-dl-dual-ddp5-1-eng-br-pt-h-264-dash.236753/]]></link>
                <description><![CDATA[<article>
<blockquote class="messageText SelectQuoteContainer ugc baseHtml">
<span style="font-size: 22px"><b>Miraculous.World.-.Xangai.a.Lenda.de.Lady.Dragon.2021.1080p.DGO.WEB-DL.DDP5.1.H.264-DASH.mkv (Brazilian Portuguese + English)</b></span><br>
<br>
<span style="font-size: 18px">Original English Title: <b>Miraculous World: Shanghai – The Legend of Ladydragon</b><br>
<br>
</span>
<div class="ToggleTriggerAnchor bbCodeSpoilerContainer">
<button type="button" class="button bbCodeSpoilerButton ToggleTrigger Tooltip JsOnly" data-target="> .SpoilerTarget"><span>Spoiler: <span class="SpoilerTitle">MediaInfo</span></span></button>
<div class="SpoilerTarget bbCodeSpoilerText"><span style="font-size: 18px">General<br>
Unique ID : 126254727326893573322785967088574547756 (0x5EFBC6A7CCE74EEF0CFC7B44C48A472C)<br>
Complete name : Miraculous.World.-.Nova.Iorque.Heróis.Unidos.2020.1080p.DGO.WEB-DL.DDP5.1.H.264-DASH.mkv<br>
Format : Matroska<br>
Format version : Version 4<br>
File size : 2.81 GiB<br>
Duration : 1 h 2 min<br>
Overall bit rate : 6 386 kb/s<br>
Frame rate : 29.970 FPS<br>
Encoded date : 2024-01-30 20:29:10 UTC<br>
Writing application : mkvmerge v77.0 ('Elemental') 64-bit<br>
Writing library : libebml v1.4.4 + libmatroska v1.7.1<br>
<br>
Video<br>
ID : 1<br>
Format : AVC<br>
Format/Info : Advanced Video Codec<br>
Format profile : High@L4<br>
Format settings : 1 Ref Frames<br>
Format settings, CABAC : No<br>
Format settings, Reference frames : 1 frame<br>
Format settings, GOP : M=1, N=30<br>
Codec ID : V_MPEG4/ISO/AVC<br>
Duration : 1 h 2 min<br>
Bit rate mode : Constant<br>
Bit rate : 6 000 kb/s<br>
Width : 1 920 pixels<br>
Height : 1 080 pixels<br>
Display aspect ratio : 16:9<br>
Frame rate mode : Constant<br>
Frame rate : 29.970 (30000/1001) FPS<br>
Color space : YUV<br>
Chroma subsampling : 4:2:0<br>
Bit depth : 8 bits<br>
Scan type : Progressive<br>
Bits/(Pixel*Frame) : 0.097<br>
Stream size : 2.64 GiB (94%)<br>
Default : Yes<br>
Forced : No<br>
Color range : Limited<br>
Color primaries : BT.601 NTSC<br>
Transfer characteristics : BT.601<br>
Matrix coefficients : BT.601<br>
<br>
Audio #1<br>
ID : 2<br>
Format : E-AC-3<br>
Format/Info : Enhanced AC-3<br>
Commercial name : Dolby Digital Plus<br>
Codec ID : A_EAC3<br>
Duration : 1 h 2 min<br>
Bit rate mode : Constant<br>
Bit rate : 192 kb/s<br>
Channel(s) : 6 channels<br>
Channel layout : L R C LFE Ls Rs<br>
Sampling rate : 48.0 kHz<br>
Frame rate : 31.250 FPS (1536 SPF)<br>
Compression mode : Lossy<br>
Stream size : 86.5 MiB (3%)<br>
Title : English<br>
Language : English<br>
Service kind : Complete Main<br>
Default : Yes<br>
Forced : No<br>
<br>
Audio #2<br>
ID : 3<br>
Format : E-AC-3<br>
Format/Info : Enhanced AC-3<br>
Commercial name : Dolby Digital Plus<br>
Codec ID : A_EAC3<br>
Duration : 1 h 2 min<br>
Bit rate mode : Constant<br>
Bit rate : 192 kb/s<br>
Channel(s) : 6 channels<br>
Channel layout : L R C LFE Ls Rs<br>
Sampling rate : 48.0 kHz<br>
Frame rate : 31.250 FPS (1536 SPF)<br>
Compression mode : Lossy<br>
Stream size : 86.5 MiB (3%)<br>
Title : Portuguese<br>
Language : Portuguese<br>
Service kind : Complete Main<br>
Default : No<br>
Forced : No<br>
<br>
Text<br>
ID : 4<br>
Format : UTF-8<br>
Codec ID : S_TEXT/UTF8<br>
Codec ID/Info : UTF-8 Plain Text<br>
Duration : 1 h 1 min<br>
Bit rate : 73 b/s<br>
Frame rate : 0.237 FPS<br>
Count of elements : 876<br>
Stream size : 33.2 KiB (0%)<br>
Title : Portuguese<br>
Language : Portuguese<br>
Default : No<br>
Forced : No</span></div>
</div><img src="https://i.imgur.com/kasMG2y.jpeg" class="bbCodeImage LbImage" alt="[​IMG]" data-url="https://i.imgur.com/kasMG2y.jpeg" style=""> <br>
<br>
<b><span style="font-size: 22px">Em Xangai para uma visita, Ladybug tem a bolsa roubada com Tikki dentro. Tentando recuperá-lo, descobre que Gabriel Agreste também está na cidade a procura de algo.<br>
<br>
</span><br>
<span style="font-size: 26px">Download on MEGA:</span><br>
<span style="font-size: 18px"><br>
<div class="bbCodeBlock bbCodeVfcHH HiddenContent">
<div class="attribution type">Hidden Content:</div>
<blockquote>You must reply before you can see the hidden data contained here.</blockquote>
</div></span></b>
<div class="messageTextEndMarker">&nbsp;</div>
</blockquote>
</article>]]></description>
                <author><![CDATA[dash]]></author>
                </item>

                </channel></rss>